<?xml version="1.0" standalone="no"?><!DOCTYPE svg PUBLIC "-//W3C//DTD SVG 1.1//EN" "http://www.w3.org/Graphics/SVG/1.1/DTD/svg11.dtd"><svg t="1773562016204" class="icon" viewBox="0 0 1024 1024" version="1.1" xmlns="http://www.w3.org/2000/svg" p-id="2979" xmlns:xlink="http://www.w3.org/1999/xlink" width="200" height="200"><path d="M675.6 61.2c0-11.6 9.2-20.8 20.8-20.8h277.2c11.6 0 20.8 9.2 20.8 20.8v114c0 11.6-9.2 20.8-20.8 20.8h-280.4l-18 15.2V61.2z" fill="#71CDE1" p-id="2980"></path><path d="M88.4 10.4h13.6v1003.6h-13.6z" fill="#4A555F" p-id="2981"></path><path d="M0 918.8h1003.6v13.6H0z" fill="#4A555F" p-id="2982"></path><path d="M348.8 932h-124v-267.2h124V932z m-110.4-13.2h96.8v-240H238.4v240z" fill="#4A555F" p-id="2983"></path><path d="M254.4 694.4h65.2v208.4H254.4z" fill="#E0E0E0" p-id="2984"></path><path d="M550.4 932h-124V480.8h124V932z m-110.4-13.2h96.8v-424H440v424z" fill="#4A555F" p-id="2985"></path><path d="M456 510.4h65.2v392.4H456z" fill="#FFD552" p-id="2986"></path><path d="M752.4 932h-124v-338h124V932z m-110.4-13.2h96.8V608h-96.8v310.8z" fill="#4A555F" p-id="2987"></path><path d="M658 623.6h65.2v279.2h-65.2z" fill="#E0E0E0" p-id="2988"></path><path d="M954 932h-124v-212h124v212z m-110.4-13.2h96.8v-184.8h-96.8v184.8z" fill="#4A555F" p-id="2989"></path><path d="M859.6 750h65.2v152.8h-65.2z" fill="#FFD552" p-id="2990"></path><path d="M755.2 164c-16 0-28.8-12.8-28.8-28.8h13.6c0 8.4 6.8 15.2 15.2 15.2 8.4 0 15.2-6.8 15.2-15.2 0-7.6-6-13.6-13.6-13.6h-3.6c-14.8 0-27.2-12.4-27.2-27.2v-1.6c0-16 12.8-28.8 28.8-28.8s28.8 12.8 28.8 28.8l-13.6 0.4v-0.4c0-8.4-6.8-15.2-15.2-15.2-8.4 0-15.2 6.8-15.2 15.2v1.6c0 7.6 6 13.6 13.6 13.6h3.6c14.8 0 27.2 12.4 27.2 27.2 0 16-12.8 28.8-28.8 28.8zM863.6 164h-31.2c-15.2 0-27.2-12.4-27.2-27.2V93.2c0-15.2 12.4-27.2 27.2-27.2h31.2v13.6h-31.2c-7.6 0-13.6 6-13.6 13.6v43.6c0 7.6 6 13.6 13.6 13.6h31.2V164z" fill="#4A555F" p-id="2991"></path><path d="M812 107.2h51.6v13.6H812zM922.8 164h-11.6c-14.8 0-26.8-12-26.8-26.8V92.8c0-14.8 12-26.8 26.8-26.8h11.6c14.8 0 26.8 12 26.8 26.8v44.4c0 14.8-12 26.8-26.8 26.8z m-11.6-84.4c-7.2 0-13.2 6-13.2 13.2v44.4c0 7.2 6 13.2 13.2 13.2h11.6c7.2 0 13.2-6 13.2-13.2V92.8c0-7.2-6-13.2-13.2-13.2h-11.6z" fill="#4A555F" p-id="2992"></path><path d="M286.8 525.2m-37.6 0a37.6 37.6 0 1 0 75.2 0 37.6 37.6 0 1 0-75.2 0Z" fill="#F68F6F" p-id="2993"></path><path d="M488.4 328m-37.6 0a37.6 37.6 0 1 0 75.2 0 37.6 37.6 0 1 0-75.2 0Z" fill="#F68F6F" p-id="2994"></path><path d="M892 570.4m-37.6 0a37.6 37.6 0 1 0 75.2 0 37.6 37.6 0 1 0-75.2 0Z" fill="#F68F6F" p-id="2995"></path><path d="M687.2 437.2m-37.6 0a37.6 37.6 0 1 0 75.2 0 37.6 37.6 0 1 0-75.2 0Z" fill="#F68F6F" p-id="2996"></path><path d="M286.8 569.6c-24.4 0-44.4-20-44.4-44.4s20-44.4 44.4-44.4 44.4 20 44.4 44.4c0 24.8-20 44.4-44.4 44.4z m0-75.2c-16.8 0-30.8 14-30.8 30.8s14 30.8 30.8 30.8 30.8-14 30.8-30.8-14-30.8-30.8-30.8zM488.4 372.4c-24.4 0-44.4-20-44.4-44.4s20-44.4 44.4-44.4 44.4 20 44.4 44.4-19.6 44.4-44.4 44.4z m0-75.2c-16.8 0-30.8 14-30.8 30.8s14 30.8 30.8 30.8 30.8-14 30.8-30.8-13.6-30.8-30.8-30.8zM892 614.8c-24.4 0-44.4-20-44.4-44.4s20-44.4 44.4-44.4 44.4 20 44.4 44.4-19.6 44.4-44.4 44.4z m0-75.2c-16.8 0-30.8 14-30.8 30.8s14 30.8 30.8 30.8 30.8-14 30.8-30.8-13.6-30.8-30.8-30.8zM687.2 481.6c-24.4 0-44.4-20-44.4-44.4s20-44.4 44.4-44.4 44.4 20 44.4 44.4c0 24.8-20 44.4-44.4 44.4z m0-75.2c-16.8 0-30.8 14-30.8 30.8s14 30.8 30.8 30.8 30.8-14 30.8-30.8-14-30.8-30.8-30.8zM344.4 492.4l-10-9.2 9.2-10 10 9.2-9.2 10z m18.4-20.4l-10-9.2 9.2-10 10 9.2-9.2 10z m18-20.4l-10-9.2 9.2-10 10 9.2-9.2 10z m18.4-20l-10-9.2 9.2-10 10 9.2-9.2 10z m18-20.4l-10-9.2L416 392l10 9.2-8.8 10z m18-20.4l-10-9.2 9.2-10 10 9.2-9.2 10zM624.4 406l-11.6-7.2 7.2-11.6 11.6 7.2-7.2 11.6z m-23.2-14.4l-11.6-7.2 7.2-11.6 11.6 7.2-7.2 11.6z m-23.2-14l-11.6-7.2 7.2-11.6 11.6 7.2-7.2 11.6z m-23.2-14l-11.6-7.2 7.2-11.6 11.6 7.2-7.2 11.6zM832.8 544.8l-11.2-7.6 7.6-11.2 11.2 7.6-7.6 11.2z m-22.4-15.2l-11.2-7.6 7.6-11.2 11.2 7.6-7.6 11.2z m-22.8-14.8l-11.2-7.6 7.6-11.2 11.2 7.6-7.6 11.2z m-22.4-15.2l-11.2-7.6 7.6-11.2 11.2 7.6-7.6 11.2z m-22.8-15.2l-11.2-7.6 7.6-11.2 11.2 7.6-7.6 11.2z" fill="#4A555F" p-id="2997"></path><path d="M992 577.2h-13.6v-13.6h13.6v13.6z m-27.2 0h-13.6v-13.6h13.6v13.6z" fill="#4A555F" p-id="2998"></path><path d="M226 532h-13.6v-13.6h13.6v13.6z m-27.2 0h-13.6v-13.6h13.6v13.6z" fill="#4A555F" p-id="2999"></path><path d="M646.4 274.8V61.2c0-27.6 22.4-50.4 50.4-50.4h277.2c27.6 0 50.4 22.4 50.4 50.4v114c0 27.6-22.4 50.4-50.4 50.4h-269.6l-58 49.2z m50-250.4c-20 0-36.8 16.4-36.8 36.8v184l39.6-33.6h274.4c20 0 36.8-16.4 36.8-36.8V61.2c0-20-16.4-36.8-36.8-36.8h-277.2z" fill="#4A555F" p-id="3000"></path></svg>